<svg xmlns="http://www.w3.org/2000/svg" width="256" height="256" viewBox="0 0 100 100"><rect width="100" height="100" rx="20" fill="#deb887"></rect><path d="M38.12 69.11L38.12 69.11Q37.39 69.70 36.27 70.10Q35.15 70.49 33.63 70.49L33.63 70.49Q31.78 70.49 30.43 69.80Q29.08 69.11 27.96 67.19L27.96 67.19L17.07 48.25Q16.34 47.00 15.58 45.61Q14.82 44.22 14.13 42.84Q13.44 41.45 12.81 40.17Q12.18 38.88 11.72 37.89L11.72 37.89L11.39 37.95Q11.72 41.39 11.85 45.31Q11.98 49.24 11.98 52.74L11.98 52.74L11.98 69.96Q11.52 70.10 10.63 70.26Q9.74 70.43 8.82 70.43L8.82 70.43Q6.84 70.43 5.95 69.70Q5.05 68.97 5.05 67.26L5.05 67.26L5.05 31.09Q5.71 30.36 6.94 29.94Q8.16 29.51 9.54 29.51L9.54 29.51Q11.39 29.51 12.78 30.17Q14.16 30.83 15.28 32.74L15.28 32.74L26.24 51.75Q26.97 53.00 27.69 54.39Q28.42 55.77 29.11 57.16Q29.80 58.55 30.43 59.83Q31.06 61.12 31.52 62.11L31.52 62.11L31.78 62.04Q31.26 57.03 31.19 52.11Q31.12 47.19 31.12 42.51L31.12 42.51L31.12 29.97Q31.65 29.84 32.51 29.67Q33.37 29.51 34.36 29.51L34.36 29.51Q36.34 29.51 37.23 30.23Q38.12 30.96 38.12 32.67L38.12 32.67L38.12 69.11ZM66.96 39.87L66.96 39.87Q67.56 39.54 68.51 39.31Q69.47 39.08 70.59 39.08L70.59 39.08Q74.22 39.08 74.95 41.19L74.95 41.19Q76.00 44.55 76.96 47.46Q77.92 50.36 78.78 53.10Q79.63 55.84 80.46 58.48Q81.28 61.12 82.08 63.96L82.08 63.96L82.41 63.96Q83.26 59.60 84.02 55.51Q84.78 51.42 85.54 47.33Q86.30 43.23 86.96 39.04Q87.62 34.85 88.28 30.30L88.28 30.30Q89.53 29.57 91.32 29.57L91.32 29.57Q92.90 29.57 93.92 30.27Q94.95 30.96 94.95 32.48L94.95 32.48Q94.95 33.80 94.58 36.40Q94.22 39.01 93.66 42.34Q93.10 45.68 92.31 49.44Q91.51 53.20 90.66 56.83Q89.80 60.46 88.91 63.66Q88.02 66.86 87.22 69.04L87.22 69.04Q86.50 69.57 85.21 69.93Q83.92 70.29 82.41 70.29L82.41 70.29Q80.49 70.29 79.17 69.73Q77.85 69.17 77.52 68.18L77.52 68.18Q76.93 66.60 76.10 64.26Q75.28 61.91 74.39 59.17Q73.50 56.43 72.61 53.40Q71.71 50.36 70.86 47.33L70.86 47.33Q70.06 50.30 69.14 53.43Q68.22 56.57 67.33 59.47Q66.43 62.37 65.61 64.88Q64.78 67.39 64.12 69.11L64.12 69.11Q63.46 69.57 62.24 69.93Q61.02 70.29 59.50 70.29L59.50 70.29Q57.59 70.29 56.24 69.70Q54.88 69.11 54.49 68.18L54.49 68.18Q53.89 66.86 53.17 64.35Q52.44 61.85 51.62 58.65Q50.79 55.44 49.93 51.78Q49.08 48.12 48.32 44.46Q47.56 40.79 46.90 37.36Q46.24 33.93 45.84 31.16L45.84 31.16Q46.44 30.56 47.46 30.07Q48.48 29.57 49.67 29.57L49.67 29.57Q52.77 29.57 53.37 32.67L53.37 32.67Q54.22 37.36 55.02 41.39Q55.81 45.41 56.53 49.14Q57.26 52.87 57.99 56.50Q58.71 60.13 59.57 63.96L59.57 63.96L59.83 63.96Q60.69 61.05 61.45 58.51Q62.21 55.97 63.04 53.23Q63.86 50.49 64.82 47.29Q65.77 44.09 66.96 39.87Z" fill="#ffffff"></path></svg>