<?xml version="1.0" encoding="UTF-8"?>
<svg id="Layer_1" data-name="Layer 1" xmlns="http://www.w3.org/2000/svg" xmlns:xlink="http://www.w3.org/1999/xlink" viewBox="0 0 547.57 107.34">
  <defs>
    <style>
      .cls-1 {
        filter: url(#drop-shadow-1);
      }

      .cls-2 {
        fill: #fff;
        stroke: #f2f2f2;
        stroke-miterlimit: 10;
      }
    </style>
    <filter id="drop-shadow-1" filterUnits="userSpaceOnUse">
      <feOffset dx="7" dy="7"/>
      <feGaussianBlur result="blur" stdDeviation="5"/>
      <feFlood flood-color="#000" flood-opacity=".75"/>
      <feComposite in2="blur" operator="in"/>
      <feComposite in="SourceGraphic"/>
    </filter>
  </defs>
  <g class="cls-1">
    <path class="cls-2" d="m36.41,75.74c-4.02,1.23-8.03,2.5-12.03,3.79,1.87,5.76,3.73,11.53,5.6,17.29.8,2.47.8,4.54.02,6.21-.78,1.67-2.08,2.8-3.9,3.41-1.91.63-3.65.52-5.25-.34-1.59-.86-2.81-2.5-3.64-4.93-5.34-15.6-10.69-31.21-16.03-46.81-.93-2.71-.9-4.88.08-6.51.99-1.63,2.99-2.95,6.01-3.95,5.87-1.94,11.75-3.81,17.65-5.62,5.23-1.6,9.38-2.43,12.41-2.52,3-.11,5.74.37,8.23,1.43,2.49,1.06,4.58,2.63,6.27,4.71,1.7,2.08,2.94,4.6,3.75,7.55,1.72,6.31.93,11.65-2.27,16.06-3.21,4.41-8.83,7.77-16.89,10.24Zm-11.93-27.11c-3.06.95-6.11,1.92-9.16,2.91,2.01,6.22,4.03,12.44,6.04,18.66,2.98-.96,5.96-1.91,8.95-2.84,3.14-.98,5.67-2.08,7.6-3.33,1.93-1.25,3.24-2.73,3.95-4.46.7-1.73.73-3.73.07-6-.79-2.72-2.3-4.68-4.55-5.87-2.49-1.24-6.8-.96-12.89.93Z"/>
    <path class="cls-2" d="m92.22,19.46c7.18-1.58,13.65-1.52,19.32.11,5.67,1.64,10.26,4.69,13.76,9.11,3.51,4.42,5.81,9.95,6.99,16.56.87,4.89.96,9.45.3,13.69-.66,4.24-2.08,8.08-4.25,11.51-2.17,3.44-5.05,6.31-8.66,8.65-3.61,2.34-7.91,4.04-12.94,5.14-5,1.1-9.65,1.34-13.97.7-4.33-.64-8.18-2.04-11.56-4.23-3.38-2.19-6.28-5.1-8.7-8.76-2.42-3.65-4.25-7.81-5.47-12.46-1.25-4.77-1.67-9.34-1.22-13.71.45-4.37,1.74-8.32,3.89-11.84,2.15-3.52,5.12-6.53,8.9-9,3.78-2.47,8.33-4.31,13.62-5.47Zm26.3,28.26c-.9-4.61-2.47-8.46-4.74-11.52-2.27-3.06-5.09-5.15-8.45-6.26-3.36-1.11-7-1.24-10.89-.39-2.77.61-5.22,1.66-7.35,3.15-2.12,1.49-3.81,3.35-5.06,5.56-1.25,2.22-2.01,4.86-2.29,7.91-.28,3.06.02,6.34.88,9.86.87,3.55,2.12,6.63,3.76,9.27,1.63,2.64,3.53,4.7,5.67,6.18,2.15,1.49,4.42,2.44,6.83,2.88,2.41.44,4.92.36,7.54-.21,3.36-.74,6.27-2.21,8.76-4.42,2.49-2.21,4.24-5.19,5.25-8.93,1.01-3.74,1.05-8.11.08-13.09Z"/>
    <path class="cls-2" d="m162.86,45.18c-1.58.22-3.16.45-4.75.68.99,6.8,1.99,13.61,2.98,20.41.39,2.69.07,4.75-.94,6.2-1.02,1.45-2.49,2.32-4.43,2.62-2.08.32-3.8-.09-5.16-1.23-1.36-1.14-2.25-2.99-2.67-5.56-2.65-16.25-5.3-32.5-7.95-48.75-.45-2.77-.1-4.88,1.06-6.34,1.16-1.46,3.27-2.43,6.32-2.89,7.67-1.17,15.35-2.23,23.04-3.2,3.18-.4,5.92-.6,8.21-.61,2.29-.01,4.39.26,6.28.82,2.29.6,4.35,1.61,6.19,3.01,1.84,1.4,3.29,3.1,4.36,5.09,1.07,1.99,1.71,4.15,1.93,6.48.45,4.77-.63,8.71-3.19,11.84-2.57,3.13-6.65,5.59-12.26,7.45,2.55.94,5.06,2.48,7.51,4.62,2.44,2.15,4.65,4.48,6.62,6.99,1.97,2.52,3.52,4.82,4.67,6.89,1.15,2.08,1.75,3.52,1.83,4.34.08.84-.12,1.7-.59,2.58-.47.88-1.15,1.6-2.05,2.18-.9.57-1.96.92-3.2,1.04-1.47.15-2.75-.06-3.82-.64-1.08-.58-2.03-1.35-2.87-2.31-.84-.97-2-2.39-3.48-4.28-2.1-2.67-4.21-5.33-6.34-7.99-2.3-2.93-4.34-5.12-6.08-6.57-1.74-1.46-3.45-2.38-5.11-2.78-1.66-.4-3.7-.43-6.1-.1Zm4.28-27.8c-4.31.56-8.62,1.16-12.92,1.78.85,5.82,1.7,11.64,2.55,17.46,4.09-.6,8.19-1.16,12.28-1.7,3.3-.43,6.04-1.04,8.23-1.85,2.19-.81,3.8-1.92,4.85-3.35,1.04-1.43,1.45-3.27,1.19-5.53-.2-1.77-.86-3.28-1.98-4.51-1.13-1.24-2.59-2.09-4.4-2.55-1.71-.44-4.98-.38-9.79.25Z"/>
    <path class="cls-2" d="m250.25,11.65c-5.12.16-10.24.37-15.36.62.77,15.53,1.54,31.05,2.31,46.58.13,2.68-.38,4.7-1.53,6.06-1.15,1.36-2.68,2.09-4.6,2.2-1.95.11-3.58-.44-4.89-1.68-1.31-1.23-2.06-3.17-2.24-5.82-1.03-15.51-2.05-31.02-3.08-46.53-5.12.34-10.23.72-15.34,1.15-2.4.2-4.22-.12-5.48-.99-1.26-.87-1.96-2.1-2.11-3.7-.15-1.66.34-3.02,1.48-4.09,1.14-1.07,2.88-1.71,5.21-1.91,15.08-1.27,30.18-2.15,45.29-2.62,2.47-.08,4.31.37,5.54,1.33,1.22.96,1.85,2.25,1.89,3.85.04,1.61-.54,2.91-1.72,3.92-1.18,1.01-2.97,1.54-5.37,1.62Z"/>
    <path class="cls-2" d="m307.39,11.08c-9.25-.33-18.51-.51-27.77-.54-.02,5.47-.04,10.95-.05,16.42,7.59.02,15.18.15,22.77.39,2.11.06,3.67.57,4.68,1.49,1.01.93,1.48,2.14,1.42,3.62-.06,1.49-.63,2.65-1.7,3.49-1.08.84-2.64,1.22-4.69,1.16-7.5-.23-15-.36-22.5-.38-.02,7.05-.05,14.1-.07,21.15,0,2.69-.64,4.68-1.87,5.97-1.23,1.3-2.81,1.95-4.73,1.96-1.95,0-3.55-.63-4.79-1.93-1.25-1.3-1.89-3.28-1.93-5.93-.22-16.46-.44-32.93-.66-49.39-.03-1.87.26-3.4.85-4.59.59-1.19,1.53-2.06,2.82-2.61,1.29-.55,2.95-.83,4.97-.84,11.21-.04,22.42.15,33.63.55,2.27.08,3.94.61,5.01,1.57,1.06.97,1.56,2.19,1.5,3.68-.07,1.52-.67,2.71-1.8,3.58-1.13.87-2.82,1.26-5.06,1.18Z"/>
    <path class="cls-2" d="m356.11,3.06c7.29.67,13.41,2.69,18.3,5.97,4.89,3.28,8.32,7.58,10.31,12.86,1.99,5.28,2.51,11.25,1.62,17.9-.66,4.92-1.96,9.29-3.87,13.14-1.91,3.84-4.43,7.06-7.53,9.68-3.1,2.62-6.71,4.48-10.85,5.61-4.13,1.13-8.73,1.45-13.84.97-5.07-.47-9.55-1.65-13.45-3.57-3.91-1.92-7.12-4.42-9.66-7.54-2.54-3.11-4.4-6.77-5.58-10.99-1.18-4.22-1.66-8.73-1.41-13.54.26-4.93,1.24-9.41,2.99-13.43,1.74-4.03,4.16-7.4,7.26-10.1,3.1-2.7,6.82-4.67,11.14-5.88,4.33-1.21,9.2-1.58,14.57-1.08Zm16.4,34.91c.54-4.67.21-8.81-1.02-12.41-1.23-3.61-3.27-6.46-6.12-8.53-2.85-2.07-6.26-3.3-10.21-3.67-2.81-.26-5.45,0-7.92.78-2.46.78-4.62,2.03-6.48,3.77-1.85,1.73-3.37,4.02-4.56,6.84-1.19,2.83-1.9,6.05-2.15,9.66-.25,3.64,0,6.96.75,9.97.75,3.01,1.92,5.54,3.5,7.61,1.59,2.07,3.45,3.67,5.6,4.82,2.15,1.15,4.55,1.84,7.21,2.09,3.41.32,6.61-.2,9.65-1.56,3.03-1.36,5.59-3.66,7.69-6.91,2.1-3.26,3.46-7.4,4.04-12.45Z"/>
    <path class="cls-2" d="m415.44,18.63c-2.53,15.37-5.06,30.73-7.6,46.1,8.95,1.47,17.88,3.1,26.79,4.88,2.13.43,3.66,1.26,4.59,2.5.93,1.24,1.23,2.61.92,4.13-.32,1.54-1.14,2.68-2.45,3.41-1.31.73-3.03.88-5.16.45-10.47-2.09-20.97-3.97-31.49-5.63-2.85-.45-4.8-1.38-5.87-2.81-1.07-1.43-1.4-3.53-.99-6.3,2.41-16.3,4.82-32.6,7.22-48.91.38-2.6,1.31-4.45,2.79-5.56,1.48-1.11,3.27-1.5,5.37-1.17,2.13.33,3.75,1.25,4.86,2.75,1.11,1.5,1.44,3.56,1.01,6.18Z"/>
    <path class="cls-2" d="m449.58,76.69c3.63-16.46,7.26-32.92,10.9-49.39.57-2.57,1.63-4.35,3.21-5.34,1.57-.99,3.39-1.26,5.43-.79,2.11.48,3.67,1.52,4.67,3.09,1,1.57,1.19,3.65.58,6.23-3.91,16.4-7.81,32.8-11.72,49.2-.62,2.58-1.68,4.37-3.19,5.36-1.51.99-3.23,1.27-5.17.82-1.86-.43-3.24-1.42-4.16-2.98-.92-1.57-1.1-3.63-.54-6.2Z"/>
    <path class="cls-2" d="m521.97,35.06c7.08,2.11,12.75,5.3,16.95,9.48,4.2,4.19,6.77,9.1,7.72,14.67.95,5.57.3,11.53-1.87,17.89-1.61,4.7-3.75,8.73-6.39,12.12-2.64,3.39-5.76,6.05-9.35,8-3.58,1.95-7.52,3.06-11.84,3.35-4.31.29-8.93-.32-13.89-1.79-4.93-1.47-9.12-3.51-12.61-6.16-3.49-2.65-6.18-5.74-8.08-9.3-1.9-3.55-3.03-7.51-3.38-11.88-.35-4.37.06-8.89,1.24-13.56,1.21-4.78,3.06-8.98,5.57-12.59,2.51-3.61,5.55-6.44,9.14-8.48,3.59-2.04,7.65-3.23,12.16-3.57,4.52-.33,9.4.27,14.62,1.82Zm9.45,37.5c1.45-4.47,1.93-8.6,1.41-12.38-.52-3.78-1.98-6.98-4.4-9.59-2.42-2.6-5.56-4.49-9.4-5.63-2.73-.81-5.4-1.08-7.98-.81-2.59.27-4.97,1.08-7.14,2.41-2.17,1.33-4.12,3.27-5.84,5.81-1.72,2.54-3.05,5.56-4,9.05-.96,3.52-1.35,6.83-1.2,9.93.15,3.1.82,5.82,1.98,8.16,1.17,2.34,2.7,4.28,4.6,5.83,1.9,1.55,4.14,2.7,6.73,3.47,3.31.98,6.58,1.11,9.85.39,3.27-.73,6.25-2.48,8.96-5.25,2.71-2.78,4.86-6.58,6.43-11.41Z"/>
  </g>
</svg>